<svg
   data-name="Layer 1"
   width="848.25708"
   height="467.60236"
   viewBox="0 0 848.25707 467.60237"
   version="1.1"
   xmlns="http://www.w3.org/2000/svg"
   xmlns:svg="http://www.w3.org/2000/svg"
   xmlns:rdf="http://www.w3.org/1999/02/22-rdf-syntax-ns#"
   xmlns:cc="http://creativecommons.org/ns#"
   xmlns:dc="http://purl.org/dc/elements/1.1/">
  <defs
     id="defs97" />
  <path
     id="path10"
     style="display:inline;fill:#0c1e0c;fill-opacity:1"
     class="grey1-filled"
     d="M 310.65234 5 L 310.65234 10.363281 L 49.410156 10.363281 A 17.5985 17.5985 0 0 0 31.8125 27.960938 L 31.8125 384.21289 A 17.59856 17.59856 0 0 0 33.080078 388.94141 L 25.992188 388.94141 A 20.99293 20.99293 0 0 0 5 409.93555 L 5 419.42773 A 20.99291 20.99291 0 0 0 25.992188 440.41992 L 631.2168 440.41992 A 37.71374 37.71374 0 0 0 665.11133 462.60156 L 803.16406 462.60156 A 37.71374 37.71374 0 0 0 840.87891 424.88867 L 840.87891 178.95117 L 843.25781 178.95117 L 843.25781 132.56836 L 840.87891 132.56836 L 840.87891 67.40625 A 37.71374 37.71374 0 0 0 803.16406 29.693359 L 706.39062 29.693359 L 706.39062 27.960938 A 17.5985 17.5985 0 0 0 688.79297 10.363281 L 428.62305 10.363281 L 428.62305 5 L 310.65234 5 z M 368.56445 18.941406 A 6.4347801 6.4347801 0 0 1 375 25.376953 A 6.4347801 6.4347801 0 0 1 368.56445 31.8125 A 6.4347801 6.4347801 0 0 1 362.13086 25.376953 A 6.4347801 6.4347801 0 0 1 368.56445 18.941406 z M 55.40625 41.462891 L 638.375 41.462891 A 37.71373 37.71373 0 0 0 627.39648 67.40625 L 627.39648 388.94141 L 626.91406 388.94141 L 626.91406 384.53125 A 0.87467 0.87467 0 0 0 626.04102 383.65625 L 605.04688 383.65625 A 0.87468 0.87468 0 0 0 604.17188 384.53125 L 604.17188 388.94141 L 591.05273 388.94141 L 591.05273 384.53125 A 0.87468 0.87468 0 0 0 590.17773 383.65625 L 569.18359 383.65625 A 0.87468 0.87468 0 0 0 568.31055 384.53125 L 568.31055 388.94141 L 555.18945 388.94141 L 555.18945 384.53125 A 0.87468 0.87468 0 0 0 554.31445 383.65625 L 533.32227 383.65625 A 0.87468 0.87468 0 0 0 532.44727 384.53125 L 532.44727 388.94141 L 519.32617 388.94141 L 519.32617 384.53125 A 0.87468 0.87468 0 0 0 518.45117 383.65625 L 497.45898 383.65625 A 0.87467 0.87467 0 0 0 496.58398 384.53125 L 496.58398 388.94141 L 483.46289 388.94141 L 483.46289 384.53125 A 0.87468 0.87468 0 0 0 482.58789 383.65625 L 461.5957 383.65625 A 0.87468 0.87468 0 0 0 460.7207 384.53125 L 460.7207 388.94141 L 447.59961 388.94141 L 447.59961 384.53125 A 0.87468 0.87468 0 0 0 446.72656 383.65625 L 282.28125 383.65625 A 0.87468 0.87468 0 0 0 281.40625 384.53125 L 281.40625 388.94141 L 268.28516 388.94141 L 268.28516 384.53125 A 0.87468 0.87468 0 0 0 267.41211 383.65625 L 246.41797 383.65625 A 0.87467 0.87467 0 0 0 245.54297 384.53125 L 245.54297 388.94141 L 232.42383 388.94141 L 232.42383 384.53125 A 0.87468 0.87468 0 0 0 231.54883 383.65625 L 210.55469 383.65625 A 0.87468 0.87468 0 0 0 209.68164 384.53125 L 209.68164 388.94141 L 196.56055 388.94141 L 196.56055 384.53125 A 0.87467 0.87467 0 0 0 195.68555 383.65625 L 174.69336 383.65625 A 0.87468 0.87468 0 0 0 173.81836 384.53125 L 173.81836 388.94141 L 160.69727 388.94141 L 160.69727 384.53125 A 0.87468 0.87468 0 0 0 159.82227 383.65625 L 138.83008 383.65625 A 0.87468 0.87468 0 0 0 137.95508 384.53125 L 137.95508 388.94141 L 124.83398 388.94141 L 124.83398 384.53125 A 0.87468 0.87468 0 0 0 123.95898 383.65625 L 102.9668 383.65625 A 0.87468 0.87468 0 0 0 102.0918 384.53125 L 102.0918 388.94141 L 88.970703 388.94141 L 88.970703 384.53125 A 0.87468 0.87468 0 0 0 88.097656 383.65625 L 67.103516 383.65625 A 0.87467 0.87467 0 0 0 66.228516 384.53125 L 66.228516 388.94141 L 55.40625 388.94141 L 55.40625 41.462891 z M 665.9668 41.462891 L 682.79688 41.462891 A 13.3792 13.3792 0 0 0 682.79688 50.421875 L 682.79688 50.425781 A 13.3792 13.3792 0 0 0 682.79883 50.429688 A 13.3792 13.3792 0 0 0 687.25195 56.837891 A 13.3792 13.3792 0 0 0 687.68359 57.228516 A 13.3792 13.3792 0 0 0 695.16992 59.888672 A 13.3792 13.3792 0 0 0 695.1875 59.894531 L 706.39062 59.894531 L 706.39062 59.892578 L 774.27734 59.892578 A 13.37908 13.37908 0 0 0 786.66602 41.462891 L 804.6875 41.462891 A 28.16308 28.16308 0 0 1 832.84766 69.623047 L 832.84766 426.58203 A 28.16523 28.16523 0 0 1 804.6875 454.75195 L 665.9668 454.75195 A 28.16511 28.16511 0 0 1 641.79883 440.41992 A 28.16511 28.16511 0 0 1 638.96484 433.9043 A 28.16511 28.16511 0 0 1 637.80664 426.58203 L 637.80664 401.8125 L 637.80664 395.37695 L 637.80664 388.94141 L 637.80664 69.623047 A 28.163 28.163 0 0 1 665.9668 41.462891 z " />
</svg>
