<svg id="e8ab07fb-aa66-4eb8-9149-b5abc1630568" data-name="Layer 2" xmlns="http://www.w3.org/2000/svg" width="799.70314" height="607.18766" viewBox="0 0 799.70314 607.18766">
    <rect x="0.27492" y="0.36501" width="643.86161" height="412.35762" fill="#e6e6e6"/>
    <rect x="18.68599" y="52.08494" width="607.03946" height="336.24258" fill="#fff"/>
    <rect width="643.86161" height="27.3536" class="brand-filled"/>
    <circle cx="20.327" cy="13.98461" r="5.06978" fill="#fff"/>
    <circle cx="39.57061" cy="13.98461" r="5.06978" fill="#fff"/>
    <circle cx="58.81422" cy="13.98461" r="5.06978" fill="#fff"/>
    <rect x="73.84385" y="86.97284" width="155.98054" height="266.46676" fill="#e6e6e6"/>
    <rect x="256.74961" y="86.97284" width="129.98379" height="73.34799" class="brand-filled"/>
    <rect x="256.74961" y="180.74686" width="129.98379" height="78.91873" fill="#e6e6e6"/>
    <rect x="256.74961" y="280.09161" width="129.98379" height="73.34799" fill="#e6e6e6"/>
    <rect x="414.58706" y="86.97284" width="155.98054" height="116.12476" fill="#e6e6e6"/>
    <rect x="414.58706" y="237.31485" width="155.98054" height="116.12476" class="brand-filled"/>
    <g class="hoverglass hovers">
        <path d="M797.72843,229.95254a135.01972,135.01972,0,1,0,7.65506,199.40281L971.00163,569.1031a12.44209,12.44209,0,1,0,16.04759-19.01834L821.43108,410.337A135.02731,135.02731,0,0,0,797.72843,229.95254ZM787.05171,396.88021a101.15766,101.15766,0,1,1-12.07656-142.54785A101.15764,101.15764,0,0,1,787.05171,396.88021Z" transform="translate(-200.14843 -146.40617)" class="grey1-filled"/>
        <path d="M644.50378,408.95686a101.16313,101.16313,0,0,1-17.16557-135.98894q-2.90123,2.92175-5.60938,6.1199A101.15766,101.15766,0,1,0,776.35328,409.55915q2.702-3.20223,5.089-6.559A101.163,101.163,0,0,1,644.50378,408.95686Z" transform="translate(-200.14843 -146.40617)" opacity="0.3"/>
    </g>
</svg>
