<svg id="e189b3b9-b88e-4ad6-86fc-a3cf637fca9f" data-name="Layer 1" xmlns="http://www.w3.org/2000/svg" width="1082.43901" height="449.88124" viewBox="0 0 1082.43901 449.88124">
    <title>
        code_thinking
    </title>
    <rect x="178.43901" y="59.71015" width="28" height="28" class="brand-filled"/>
    <path d="M282.21951,296.76953h-34v-34h34Zm-32.52174-1.47826h31.04348V264.24779H249.69777Z" transform="translate(-58.78049 -225.05938)" fill="#3f3d56"/>
    <rect x="108.80838" y="374.61657" width="28" height="28" transform="translate(403.98758 -61.23638) rotate(74.06317)" class="brand-filled"/>
    <path d="M133.24341,417.87594l-9.33563-32.69321,32.69321-9.33564,9.33563,32.69321Zm-7.50829-31.67767,8.52384,29.85032,29.85032-8.52383-8.52384-29.85033Z" transform="translate(-58.78049 -225.05938)" fill="#3f3d56"/>
    <rect x="118.48664" y="239.04858" width="28" height="28" class="brand-filled" transform="translate(350.04671 103.9752) rotate(134.06281)"/>
    <path d="M112.78106,277.063l23.21519-24.8406,24.84059,23.21519-23.21518,24.84059Zm23.28586-22.75121-21.19647,22.68054L137.551,298.18876l21.19647-22.68054Z" transform="translate(-58.78049 -225.05938)" fill="#3f3d56"/>
    <path d="M1085.0123,230.4217H824.8427v-5.36232h-117.971v5.36232H445.62961a17.5985,17.5985,0,0,0-17.59851,17.59851V604.2724A17.59855,17.59855,0,0,0,445.62961,621.871H1085.0123a17.59855,17.59855,0,0,0,17.59851-17.59857V248.02021A17.5985,17.5985,0,0,0,1085.0123,230.4217Z" transform="translate(-58.78049 -225.05938)" fill="#3f3d56"/>
    <rect x="392.84481" y="36.46377" width="627.3913" height="353.91304" class="brand-filled"/>
    <circle cx="706.00423" cy="20.37681" r="6.43478" class="brand-filled"/>
    <polygon points="840.813 390.377 392.845 390.377 392.845 36.464 840.813 390.377" opacity="0.1"/>
    <circle cx="491.01276" cy="303.58656" r="60.3068" fill="#f2f2f2"/>
    <path d="M563.21822,573.97237A75.01578,75.01578,0,1,1,638.234,498.9566,75.10088,75.10088,0,0,1,563.21822,573.97237Zm0-149.05095A74.03518,74.03518,0,1,0,637.2534,498.9566,74.119,74.119,0,0,0,563.21822,424.92142Z" transform="translate(-58.78049 -225.05938)" fill="#3f3d56"/>
    <rect x="852.39173" y="227.33189" width="58.6052" height="12.24586" fill="#3f3d56"/>
    <rect x="781.54067" y="131.9891" width="200.30733" height="5.24823" fill="#3f3d56"/>
    <rect x="781.54067" y="148.60849" width="200.30733" height="5.24823" fill="#3f3d56"/>
    <rect x="781.54067" y="165.22788" width="200.30733" height="5.24823" fill="#3f3d56"/>
    <rect x="781.54067" y="181.84726" width="200.30733" height="5.24823" fill="#3f3d56"/>
    <rect x="781.54067" y="198.46665" width="200.30733" height="5.24823" fill="#3f3d56"/>
    <rect x="957.35627" y="43.64395" width="24.49173" height="24.49173" fill="#f2f2f2"/>
    <path d="M1051.99965,304.56621h-29.74v-29.74h29.74Zm-28.44691-1.293h27.15387V276.1193h-27.15387Z" transform="translate(-58.78049 -225.05938)" fill="#3f3d56"/>
    <path d="M1120.2266,609.00139h-61.22932v-4.41153a.87467.87467,0,0,0-.8747-.87471h-20.99291a.87468.87468,0,0,0-.8747.87471v4.41153H1023.1344v-4.41153a.87468.87468,0,0,0-.8747-.87471h-20.99291a.87468.87468,0,0,0-.87471.87471v4.41153H987.27152v-4.41153a.87468.87468,0,0,0-.87471-.87471H965.4039a.87468.87468,0,0,0-.8747.87471v4.41153H951.40863v-4.41153a.87468.87468,0,0,0-.8747-.87471H929.541a.87467.87467,0,0,0-.8747.87471v4.41153H915.54575v-4.41153a.87468.87468,0,0,0-.87471-.87471h-20.9929a.87468.87468,0,0,0-.87471.87471v4.41153H879.68286v-4.41153a.87468.87468,0,0,0-.8747-.87471H857.81525a.87468.87468,0,0,0-.8747.87471v4.41153H843.82v-4.41153a.87468.87468,0,0,0-.8747-.87471H678.50083a.87468.87468,0,0,0-.8747.87471v4.41153H664.50556v-4.41153a.87468.87468,0,0,0-.87471-.87471H642.638a.87468.87468,0,0,0-.87471.87471v4.41153H628.64267v-4.41153a.87467.87467,0,0,0-.8747-.87471H606.77506a.87468.87468,0,0,0-.8747.87471v4.41153H592.77979v-4.41153a.87468.87468,0,0,0-.8747-.87471H570.91218a.87468.87468,0,0,0-.87471.87471v4.41153H556.91691v-4.41153a.87468.87468,0,0,0-.87471-.87471H535.04929a.87468.87468,0,0,0-.8747.87471v4.41153H521.054v-4.41153a.87468.87468,0,0,0-.8747-.87471H499.18641a.87467.87467,0,0,0-.8747.87471v4.41153H485.19114v-4.41153a.87468.87468,0,0,0-.87471-.87471h-20.9929a.87468.87468,0,0,0-.87471.87471v4.41153H422.21241a20.99292,20.99292,0,0,0-20.9929,20.99291v9.4925a20.99291,20.99291,0,0,0,20.9929,20.99285H1120.2266a20.99292,20.99292,0,0,0,20.99291-20.99285v-9.4925A20.99293,20.99293,0,0,0,1120.2266,609.00139Z" transform="translate(-58.78049 -225.05938)" fill="#3f3d56"/>
</svg>
